<svg xmlns="http://www.w3.org/2000/svg" xmlns:xlink="http://www.w3.org/1999/xlink" version="1.1" x="0px" y="0px" viewBox="0 0 100 125" enable-background="new 0 0 100 100" xml:space="preserve"><g><path d="M76.251,66.229l-0.052-0.04c-0.629-0.42-1.225-0.907-1.803-1.38c-2.615-2.14-5.5-4.207-7.887-6.593   c-1.449-1.448-1.955-1.885-2.236-2.015c-2.599-2.462-5.411-4.825-7.873-6.849c0.844-0.994,1.81-2.082,1.809-2.082   c3.77-3.77,7.187-7.715,10.806-11.893c0.946-1.092,1.895-2.188,2.832-3.26c1.148-1.149,1.896-2.275,2.286-3.442   c0.262-0.788,0.023-1.543-0.2-2.213c-0.034-0.217-0.165-0.413-0.292-0.604c-0.048-0.072-0.13-0.188-0.132-0.156   c0-0.797-0.606-1.159-1.141-1.479c-0.123-0.073-0.252-0.15-0.38-0.236l-0.144-0.071l-0.125-0.013   c-0.059-0.006-0.221-0.064-0.367-0.131c-0.42-0.411-0.77-0.658-1.151-0.898l-0.554-0.273c-0.044-0.025-0.089-0.049-0.205-0.105   l-0.106-0.054c-0.46-0.23-1.121-0.45-1.148-0.46l-0.051,0.131c-1.517-0.251-2.29,0.536-2.704,1.407l-0.284,0.14v0.319   c-0.222,0.215-0.361,0.338-0.366,0.358h-0.151l-0.126,0.084c-0.676,0.45-1.322,1.281-1.613,1.79   c-0.395,0.272-0.619,0.738-0.707,0.955c-4.297,4.638-8.043,9.625-11.666,14.449l-1.365,1.814c-0.936-0.799-1.884-1.64-1.885-1.64   c-3.768-3.769-7.711-7.185-11.886-10.801c-1.094-0.947-2.192-1.898-3.266-2.837c-1.15-1.149-2.276-1.896-3.442-2.285   c-0.786-0.262-1.54-0.025-2.212,0.199c-0.217,0.033-0.414,0.165-0.604,0.292c-0.071,0.048-0.19,0.127-0.155,0.133   c-0.797,0-1.16,0.606-1.479,1.142c-0.074,0.123-0.15,0.251-0.236,0.38l-0.071,0.144l-0.012,0.124   c-0.006,0.06-0.065,0.222-0.131,0.367c-0.412,0.42-0.658,0.77-0.899,1.15l-0.273,0.555c-0.025,0.044-0.048,0.088-0.106,0.206   l-0.053,0.105c-0.23,0.459-0.451,1.12-0.461,1.147l0.132,0.051c-0.251,1.517,0.537,2.292,1.408,2.705l0.142,0.283h0.316   c0.215,0.222,0.338,0.361,0.359,0.366v0.151l0.084,0.126c0.45,0.675,1.28,1.321,1.79,1.612c0.272,0.395,0.738,0.619,0.955,0.708   c4.634,4.294,9.618,8.037,14.439,11.658l1.49,1.12c-0.471,0.49-0.943,1.001-1.415,1.511c-0.643,0.696-1.286,1.392-1.928,2.034   c-0.137,0.137-0.243,0.326-0.345,0.511c-0.033,0.06-0.081,0.145-0.121,0.209l-0.197,0.159c-1.534,1.644-2.863,3.415-4.148,5.129   c-1.269,1.691-2.581,3.441-4.012,4.985c-0.896,0.673-2.869,2.643-3.981,3.977l-0.063,0.097c-0.16,0.32-0.29,0.55-0.401,0.745   c-0.191,0.338-0.343,0.604-0.492,1.052l-0.025,1.024c0,0.352,0.06,0.697,0.179,1.032c-0.562,0.763-0.529,1.708,0.091,2.871   c0.253,0.505,0.73,0.982,0.959,1.212l0.096,0.075c0.925,0.555,1.867,0.83,2.779,0.83c1.369,0,2.669-0.62,3.739-1.848   c0.419-0.629,0.907-1.225,1.378-1.801c1.113-1.361,2.156-2.777,3.28-4.13c1.071-1.288,2.483-2.277,3.314-3.759   c1.447-1.448,1.884-1.954,2.015-2.235c2.392-2.524,4.657-5.212,6.593-7.563c0.548,0.533,1.125,1.066,1.703,1.6   c0.7,0.646,1.399,1.291,2.044,1.937c0.136,0.137,0.326,0.242,0.51,0.344c0.06,0.033,0.146,0.081,0.21,0.121l0.159,0.196   c1.644,1.534,3.415,2.862,5.128,4.147c1.692,1.27,3.442,2.582,4.987,4.013c0.673,0.898,2.643,2.87,3.977,3.98l0.096,0.063   c0.322,0.161,0.551,0.291,0.747,0.402c0.337,0.19,0.604,0.342,1.05,0.491l1.024,0.025c0.351,0,0.697-0.061,1.033-0.18   c0.762,0.562,1.708,0.53,2.871-0.09c0.508-0.255,0.983-0.731,1.212-0.96l0.075-0.097C78.605,70.393,78.244,67.972,76.251,66.229z    M69.306,22.988L69.306,22.988L69.306,22.988L69.306,22.988z"/></g><text x="0" y="115" fill="#000000" font-size="5px" font-weight="bold" font-family="'Helvetica Neue', Helvetica, Arial-Unicode, Arial, Sans-serif">Created by Fabio Nucatolo</text><text x="0" y="120" fill="#000000" font-size="5px" font-weight="bold" font-family="'Helvetica Neue', Helvetica, Arial-Unicode, Arial, Sans-serif">from the Noun Project</text></svg>