<svg xmlns="http://www.w3.org/2000/svg" viewBox="0 0 64 80" fill="none" x="0px" y="0px"><path d="M48.3094 30.3732C48.2881 30.3945 44.4747 30.4212 39.8294 30.4265C29.3441 30.4532 27.3867 30.5065 18.2667 31.0399C14.688 31.2532 13.008 31.3439 11.68 31.4132C10.0854 31.4932 7.26936 31.6692 6.55469 31.7332C5.58936 31.8186 4.96002 32.0532 4.96002 32.3412C4.96002 32.5279 5.21602 32.8479 5.37069 32.8532C5.40269 32.8532 5.49869 32.8799 5.58402 32.9172C5.66402 32.9546 5.79202 32.9866 5.86669 32.9866C5.94136 32.9919 6.36269 33.1199 6.80002 33.2692C9.07203 34.0426 12.8374 34.4159 20.08 34.5866C21.5254 34.6186 23.8454 34.6879 26.5334 34.7732C28.7361 34.8479 32.6721 35.0506 35.7067 35.2532C45.6641 35.9146 47.2214 35.9999 49.3867 36.0052C50.4907 36.0052 50.6934 35.9946 51.0667 35.8932C51.5681 35.7652 52.3894 35.3759 52.9707 34.9866C53.7494 34.4746 54.5601 33.5892 54.5601 33.2532C54.5601 33.2159 54.5974 33.1146 54.6401 33.0346C54.7467 32.8319 54.7414 32.3572 54.6347 32.1279C54.4747 31.7919 54.0641 31.4879 53.1574 31.0452C51.7494 30.3519 51.8721 30.3785 49.9734 30.3572C49.0774 30.3465 48.3307 30.3572 48.3094 30.3732Z" fill="black"/><text x="0" y="79" fill="#000000" font-size="5px" font-weight="bold" font-family="'Helvetica Neue', Helvetica, Arial-Unicode, Arial, Sans-serif">Created by Ekrem Elmas</text><text x="0" y="84" fill="#000000" font-size="5px" font-weight="bold" font-family="'Helvetica Neue', Helvetica, Arial-Unicode, Arial, Sans-serif">from the Noun Project</text></svg>