<svg xmlns="http://www.w3.org/2000/svg" version="1.1" viewBox="-5.0 -10.0 110.0 135.0">
 <path d="m40.945 54.121c2.9922 0.45312 6.0391 0.67969 9.0547 0.67969 3.0195 0 6.0664-0.22656 9.0547-0.67969 3.9023-0.58594 6.7344-3.8906 6.7344-7.8555v-0.97656c0-4.4023-2.5078-8.1953-6.1367-10.148 1.5586-2.0469 2.5234-4.5703 2.5234-7.3398 0.003907-6.7148-5.4609-12.176-12.176-12.176s-12.18 5.4609-12.18 12.18c0 2.7734 0.96875 5.3047 2.5352 7.3516-3.6406 1.9727-6.1484 5.8164-6.1484 10.281v0.82812c0 3.9648 2.832 7.2734 6.7383 7.8555zm18.598-7.8555c0 0.84766-0.59375 1.5547-1.4141 1.6797-5.3672 0.80859-10.883 0.80859-16.254 0-0.82031-0.125-1.4141-0.82812-1.4141-1.6797v-0.82812c0-3.0586 2.332-5.457 5.3047-5.457h8.4766c2.9258 0 5.3047 2.3828 5.3047 5.3047v0.98047zm-9.543-24.391c3.2695 0 5.9297 2.6602 5.9297 5.9297 0 3.2656-2.6602 5.9258-5.9297 5.9258s-5.9297-2.6602-5.9297-5.9297c0-3.2656 2.6602-5.9258 5.9297-5.9258z"/>
 <path d="m80.336 3.125h-60.672c-5.168 0-9.375 4.207-9.375 9.375v75c0 5.168 4.207 9.375 9.375 9.375h60.68c5.168 0 9.375-4.207 9.375-9.375l-0.003906-75c-0.003906-5.168-4.207-9.375-9.3789-9.375zm3.125 84.375c0 1.7266-1.4023 3.125-3.125 3.125h-60.672c-1.7227 0-3.125-1.3984-3.125-3.125v-75c0-1.7227 1.4023-3.125 3.125-3.125h60.68c1.7227 0 3.125 1.4023 3.125 3.125l-0.003906 75z"/>
 <path d="m73.535 61.051h-47.07c-1.7266 0-3.125 1.3984-3.125 3.125 0 1.7266 1.3984 3.125 3.125 3.125h47.07c1.7266 0 3.125-1.3984 3.125-3.125 0.003906-1.7305-1.4023-3.125-3.125-3.125z"/>
 <path d="m73.535 75.227h-47.07c-1.7266 0-3.125 1.3984-3.125 3.125 0 1.7266 1.3984 3.125 3.125 3.125h47.07c1.7266 0 3.125-1.3984 3.125-3.125 0.003906-1.7266-1.4023-3.125-3.125-3.125z"/>
<text x="0.0" y="117.5" font-size="5.0" font-weight="bold" font-family="Arbeit Regular, Helvetica, Arial-Unicode, Arial, Sans-serif" fill="#000000">Created by Rikas Dzihab</text><text x="0.0" y="122.5" font-size="5.0" font-weight="bold" font-family="Arbeit Regular, Helvetica, Arial-Unicode, Arial, Sans-serif" fill="#000000">from Noun Project</text></svg>