<?xml version="1.0" encoding="UTF-8" standalone="no"?>
<svg
   version="1.1"
   viewBox="-5.0 -10.0 110.0 135.0"
   id="svg2"
   sodipodi:docname="function.svg"
   inkscape:version="1.3.2 (091e20e, 2023-11-25, custom)"
   xmlns:inkscape="http://www.inkscape.org/namespaces/inkscape"
   xmlns:sodipodi="http://sodipodi.sourceforge.net/DTD/sodipodi-0.dtd"
   xmlns="http://www.w3.org/2000/svg"
   xmlns:svg="http://www.w3.org/2000/svg">
  <defs
     id="defs2" />
  <sodipodi:namedview
     id="namedview2"
     pagecolor="#ffffff"
     bordercolor="#000000"
     borderopacity="0.25"
     inkscape:showpageshadow="2"
     inkscape:pageopacity="0.0"
     inkscape:pagecheckerboard="0"
     inkscape:deskcolor="#d1d1d1"
     inkscape:zoom="2.9"
     inkscape:cx="91.896552"
     inkscape:cy="83.965517"
     inkscape:window-width="1680"
     inkscape:window-height="979"
     inkscape:window-x="-8"
     inkscape:window-y="-8"
     inkscape:window-maximized="1"
     inkscape:current-layer="svg2" />
  <path
     d="m35.566 55.805-6.4297 11.133 1.3594 0.78516c0.94922 0.54688 1.2773 1.7773 0.73047 2.7227l-15.535 26.906c-0.54688 0.94922-1.7695 1.2734-2.7188 0.72656l-9.7188-5.6055c-0.94922-0.54688-1.2734-1.7695-0.73047-2.7227l15.535-26.902c0.54688-0.95312 1.7695-1.2773 2.7227-0.73047l1.3555 0.78125 6.4297-11.129c1.0508 0.81641 2.1719 1.5742 3.3594 2.2617 1.1875 0.68359 2.4023 1.2734 3.6445 1.7773zm-5.8086-39.395c0.97656 0.35938 1.918 0.78906 2.8164 1.2773 5.3633-6.9102 15.133-8.9766 22.922-4.4805 4.9688 2.8711 8.0273 7.7812 8.7305 13.066 0.44531-0.10156 0.90625-0.15234 1.3828-0.15234h7.8281c-0.78125-8.3984-5.4922-16.309-13.355-20.852-9.0586-5.2305-19.891-4.6016-28.113 0.70312 0.38672 1.0664 0.59375 2.2266 0.59375 3.4258 0 2.7188-1.0664 5.1914-2.8047 7.0117zm2.25 22.34h-10.363c2.1758 5.3633 6.0859 10.066 11.488 13.184 2.2031 1.2734 4.5156 2.2031 6.875 2.7969v-9.6289c-0.78125-0.30859-1.5469-0.67969-2.2891-1.1094-2.3477-1.3516-4.2656-3.1641-5.7109-5.2461zm48.98-1.2109v0.23828c0 0.66797-0.53516 1.2109-1.2031 1.2109h-19.402c-0.66797 0-1.2109-0.54297-1.2109-1.2109v-0.23828h-16.746v9.2461c0 2.5391 1.0391 4.8477 2.7109 6.5273 1.6797 1.6719 3.9922 2.7109 6.5273 2.7109h12.191v-3.8086c0-0.66797 0.54297-1.2031 1.2109-1.2031h10.039c0.66797 0 1.2031 0.53516 1.2031 1.2031v3.8086h12.191c2.5391 0 4.8555-1.0391 6.5273-2.7109 1.6797-1.6797 2.7188-3.9844 2.7188-6.5273v-9.2461zm-7.0977 15.887h-7.6172v2.5977h7.6172zm-11.121-23.707c-0.72656 0.73047-1.1836 1.7344-1.1836 2.8398v2.5703h16.988v-2.5703c0-1.1016-0.44922-2.1055-1.1836-2.8398-0.72656-0.72656-1.7305-1.1758-2.832-1.1758h-8.9531c-1.1016 0-2.1055 0.44922-2.8398 1.1758zm25.73 28.727h-12.191v3.8086c0 0.66797-0.53516 1.2109-1.2031 1.2109h-10.039c-0.66797 0-1.2109-0.54297-1.2109-1.2109v-3.8086h-12.191c-3.2031 0-6.1211-1.3125-8.2344-3.4258-0.35938-0.35938-0.69531-0.74219-1.0039-1.1484v22.996h55.32v-22.996c-0.3125 0.40625-0.65234 0.78906-1.0117 1.1484-2.1133 2.1133-5.0234 3.4258-8.2344 3.4258zm-22.223 2.5977h7.6172v-2.5977h-7.6172zm-38.805-42.832c-1.4961 0.86328-3.2266 1.3516-5.0742 1.3516-1.8516 0-3.5781-0.49219-5.0703-1.3516-7.9297 2.2148-13.742 9.4883-13.742 18.125h37.629c0-8.6328-5.8125-15.91-13.738-18.125zm-5.0742-1.0625c4.2656 0 7.75-3.4766 7.75-7.75 0-4.2695-3.4844-7.7422-7.75-7.7422-4.2656 0-7.75 3.4766-7.75 7.7422 0 4.2656 3.4844 7.75 7.75 7.75z"
     fill-rule="evenodd"
     id="path1"
     style="fill:#13505b;fill-opacity:1" />
  <path
     d="m 34.478237,54.530749 -6.4297,11.133 1.3594,0.78516 c 0.94922,0.54688 1.2773,1.7773 0.73047,2.7227 l -15.535,26.906 c -0.54688,0.94922 -1.7695,1.2734 -2.7188,0.72656 l -9.7187992,-5.6055 c -0.94922,-0.54688 -1.27339999,-1.7695 -0.73047,-2.7227 l 15.5349992,-26.902 c 0.54688,-0.95312 1.7695,-1.2773 2.7227,-0.73047 l 1.3555,0.78125 6.4297,-11.129 c 1.0508,0.81641 2.1719,1.5742 3.3594,2.2617 1.1875,0.68359 2.4023,1.2734 3.6445,1.7773 z m -5.8086,-39.395 c 0.97656,0.35938 1.918,0.78906 2.8164,1.2773 5.3633,-6.9101997 15.133,-8.9765997 22.922,-4.4805 4.9688,2.8711 8.0273,7.7812 8.7305,13.066 0.44531,-0.10156 0.90625,-0.15234 1.3828,-0.15234 h 7.8281 c -0.78125,-8.3984 -5.4922,-16.3089997 -13.355,-20.8519997 -9.0586,-5.2305 -19.891,-4.60159996 -28.113,0.70312 0.38672,1.0664 0.59375,2.2266 0.59375,3.4258 0,2.7187997 -1.0664,5.1913997 -2.8047,7.0116997 z m 2.25,22.34 h -10.363 c 2.1758,5.3633 6.0859,10.066 11.488,13.184 2.2031,1.2734 4.5156,2.2031 6.875,2.7969 v -9.6289 c -0.78125,-0.30859 -1.5469,-0.67969 -2.2891,-1.1094 -2.3477,-1.3516 -4.2656,-3.1641 -5.7109,-5.2461 z m 48.98,-1.2109 v 0.23828 c 0,0.66797 -0.53516,1.2109 -1.2031,1.2109 h -19.402 c -0.66797,0 -1.2109,-0.54297 -1.2109,-1.2109 v -0.23828 h -16.746 v 9.2461 c 0,2.5391 1.0391,4.8477 2.7109,6.5273 1.6797,1.6719 3.9922,2.7109 6.5273,2.7109 h 12.191 v -3.8086 c 0,-0.66797 0.54297,-1.2031 1.2109,-1.2031 h 10.039 c 0.66797,0 1.2031,0.53516 1.2031,1.2031 v 3.8086 h 12.191 c 2.5391,0 4.8555,-1.0391 6.5273,-2.7109 1.6797,-1.6797 2.7188,-3.9844 2.7188,-6.5273 v -9.2461 z m -7.0977,15.887 h -7.6172 v 2.5977 h 7.6172 z m -11.121,-23.707 c -0.72656,0.73047 -1.1836,1.7344 -1.1836,2.8398 v 2.5703 h 16.988 v -2.5703 c 0,-1.1016 -0.44922,-2.1055 -1.1836,-2.8398 -0.72656,-0.72656 -1.7305,-1.1758 -2.832,-1.1758 h -8.9531 c -1.1016,0 -2.1055,0.44922 -2.8398,1.1758 z m 25.73,28.727 h -12.191 v 3.8086 c 0,0.66797 -0.53516,1.2109 -1.2031,1.2109 h -10.039 c -0.66797,0 -1.2109,-0.54297 -1.2109,-1.2109 v -3.8086 h -12.191 c -3.2031,0 -6.1211,-1.3125 -8.2344,-3.4258 -0.35938,-0.35938 -0.69531,-0.74219 -1.0039,-1.1484 v 22.996 h 55.32 v -22.996 c -0.3125,0.40625 -0.65234,0.78906 -1.0117,1.1484 -2.1133,2.1133 -5.0234,3.4258 -8.2344,3.4258 z m -22.223,2.5977 h 7.6172 v -2.5977 h -7.6172 z m -38.805,-42.832 c -1.4961,0.86328 -3.2266,1.3516 -5.0742,1.3516 -1.8516,0 -3.5781,-0.49219 -5.0703,-1.3516 -7.9296992,2.2148 -13.7419992,9.4883 -13.7419992,18.125 H 40.125437 c 0,-8.6328 -5.8125,-15.91 -13.738,-18.125 z m -5.0742,-1.0625 c 4.2656,0 7.75,-3.4766 7.75,-7.7499997 0,-4.2695 -3.4844,-7.74219996 -7.75,-7.74219996 -4.2656,0 -7.75,3.47659996 -7.75,7.74219996 0,4.2655997 3.4844,7.7499997 7.75,7.7499997 z"
     fill-rule="evenodd"
     id="path1-7"
     style="fill:#119da4;fill-opacity:1" />
</svg>
