<?xml version="1.0" encoding="UTF-8" standalone="no"?>
<svg
   version="1.1"
   x="0px"
   y="0px"
   viewBox="0 0 95 118.75"
   style="enable-background:new 0 0 95 95;"
   xml:space="preserve"
   id="svg2"
   sodipodi:docname="printer.svg"
   inkscape:version="1.3.2 (091e20e, 2023-11-25, custom)"
   xmlns:inkscape="http://www.inkscape.org/namespaces/inkscape"
   xmlns:sodipodi="http://sodipodi.sourceforge.net/DTD/sodipodi-0.dtd"
   xmlns="http://www.w3.org/2000/svg"
   xmlns:svg="http://www.w3.org/2000/svg"><defs
     id="defs2" /><sodipodi:namedview
     id="namedview2"
     pagecolor="#ffffff"
     bordercolor="#000000"
     borderopacity="0.25"
     inkscape:showpageshadow="2"
     inkscape:pageopacity="0.0"
     inkscape:pagecheckerboard="0"
     inkscape:deskcolor="#d1d1d1"
     inkscape:zoom="6.5936842"
     inkscape:cx="47.545498"
     inkscape:cy="41.934068"
     inkscape:window-width="1680"
     inkscape:window-height="979"
     inkscape:window-x="-8"
     inkscape:window-y="-8"
     inkscape:window-maximized="1"
     inkscape:current-layer="svg2" /><style
     type="text/css"
     id="style1">
	.st0{fill-rule:evenodd;clip-rule:evenodd;}
</style><path
     class="st0"
     d="M69.06,34.95v7.5h-42v-7.5H8.29v37.04h9.81v-12.6h58.79v12.6h9.82V34.95H69.06z M28.15,54.39  c-0.85,0.85-2.03,1.38-3.33,1.38c-1.3,0-2.48-0.53-3.34-1.38c-0.85-0.85-1.38-2.03-1.38-3.33c0-1.3,0.53-2.48,1.38-3.33  c0.85-0.85,2.03-1.38,3.34-1.38c1.3,0,2.48,0.53,3.33,1.38c0.85,0.85,1.38,2.03,1.38,3.33C29.53,52.36,29,53.54,28.15,54.39z   M39.76,54.39c-0.85,0.85-2.03,1.38-3.33,1.38c-1.3,0-2.48-0.53-3.33-1.38c-0.85-0.85-1.38-2.03-1.38-3.33  c0-1.3,0.53-2.48,1.38-3.33c0.85-0.85,2.03-1.38,3.33-1.38c1.3,0,2.48,0.53,3.33,1.38c0.85,0.85,1.38,2.03,1.38,3.33  C41.14,52.36,40.61,53.54,39.76,54.39z M26.05,49.82c0.32,0.32,0.51,0.75,0.51,1.24c0,0.48-0.2,0.92-0.51,1.24  c-0.32,0.32-0.75,0.51-1.23,0.51c-0.48,0-0.92-0.2-1.24-0.51c-0.32-0.32-0.51-0.75-0.51-1.24c0-0.48,0.2-0.92,0.51-1.24  c0.32-0.32,0.75-0.51,1.24-0.51C25.29,49.31,25.73,49.51,26.05,49.82z M37.66,49.82c0.32,0.32,0.51,0.75,0.51,1.24  c0,0.48-0.2,0.92-0.51,1.24c-0.32,0.32-0.75,0.51-1.23,0.51c-0.48,0-0.92-0.2-1.24-0.51c-0.32-0.32-0.51-0.75-0.51-1.24  c0-0.48,0.2-0.92,0.51-1.24c0.32-0.32,0.75-0.51,1.24-0.51C36.91,49.31,37.35,49.51,37.66,49.82z M21.07,62.35h52.85v9.63h-4.86  V65.9h-42v6.08h-5.99V62.35z M64.61,10.81h-7.85V2.97L64.61,10.81z M66.09,13.78h-12.3V1.48H30.03v38h36.06V13.78z M33.28,5.72h8.35  v2.97h-8.35V5.72z M33.2,9.73h16.39v2.97H33.2V9.73z M33.2,13.73h16.39v2.97H33.2V13.73z M62.2,32.69h-29v-2.97h29V32.69z   M62.2,27.9h-29v-2.97h29V27.9z M62.2,23.11h-29v-2.97h29V23.11z M30.03,93.52h36.06V68.87H30.03V93.52z M33.56,73.9h13.35v2.97  H33.56V73.9z M33.56,79.55h29v2.97h-29V79.55z M33.56,85.19h29v2.97h-29V85.19z"
     id="path1"
     style="fill:#13505b;fill-opacity:1"
     inkscape:export-filename="printer-border.png"
     inkscape:export-xdpi="300"
     inkscape:export-ydpi="300" /><path
     class="st0"
     d="m 67.016169,32.488837 v 7.5 h -42 v -7.5 H 6.2461686 v 37.04 h 9.8100004 v -12.6 h 58.79 v 12.6 h 9.82 v -37.04 z m -40.91,19.44 c -0.85,0.85 -2.03,1.38 -3.33,1.38 -1.3,0 -2.48,-0.53 -3.34,-1.38 -0.85,-0.85 -1.38,-2.03 -1.38,-3.33 0,-1.3 0.53,-2.48 1.38,-3.33 0.85,-0.85 2.03,-1.38 3.34,-1.38 1.3,0 2.48,0.53 3.33,1.38 0.85,0.85 1.38,2.03 1.38,3.33 0,1.3 -0.53,2.48 -1.38,3.33 z m 11.61,0 c -0.85,0.85 -2.03,1.38 -3.33,1.38 -1.3,0 -2.48,-0.53 -3.33,-1.38 -0.85,-0.85 -1.38,-2.03 -1.38,-3.33 0,-1.3 0.53,-2.48 1.38,-3.33 0.85,-0.85 2.03,-1.38 3.33,-1.38 1.3,0 2.48,0.53 3.33,1.38 0.85,0.85 1.38,2.03 1.38,3.33 0,1.3 -0.53,2.48 -1.38,3.33 z m -13.71,-4.57 c 0.32,0.32 0.51,0.75 0.51,1.24 0,0.48 -0.2,0.92 -0.51,1.24 -0.32,0.32 -0.75,0.51 -1.23,0.51 -0.48,0 -0.92,-0.2 -1.24,-0.51 -0.32,-0.32 -0.51,-0.75 -0.51,-1.24 0,-0.48 0.2,-0.92 0.51,-1.24 0.32,-0.32 0.75,-0.51 1.24,-0.51 0.47,0 0.91,0.2 1.23,0.51 z m 11.61,0 c 0.32,0.32 0.51,0.75 0.51,1.24 0,0.48 -0.2,0.92 -0.51,1.24 -0.32,0.32 -0.75,0.51 -1.23,0.51 -0.48,0 -0.92,-0.2 -1.24,-0.51 -0.32,-0.32 -0.51,-0.75 -0.51,-1.24 0,-0.48 0.2,-0.92 0.51,-1.24 0.32,-0.32 0.75,-0.51 1.24,-0.51 0.48,0 0.92,0.2 1.23,0.51 z m -16.59,12.53 h 52.85 v 9.63 h -4.86 v -6.08 h -42 v 6.08 h -5.99 z m 43.54,-51.5399994 h -7.85 V 0.50883781 Z m 1.48,2.9699994 h -12.3 V -0.98116221 h -23.76 V 37.018837 h 36.06 z m -32.81,-8.0599992 h 8.35 v 2.97 h -8.35 z m -0.08,4.01 h 16.39 v 2.9699992 h -16.39 z m 0,3.9999992 h 16.39 v 2.97 h -16.39 z m 29,18.96 h -29 v -2.97 h 29 z m 0,-4.79 h -29 v -2.97 h 29 z m 0,-4.79 h -29 v -2.97 h 29 z m -32.17,70.41 h 36.06 v -24.65 h -36.06 z m 3.53,-19.62 h 13.35 v 2.97 h -13.35 z m 0,5.65 h 29 v 2.97 h -29 z m 0,5.64 h 29 v 2.97 h -29 z"
     id="path1-1"
     style="clip-rule:evenodd;fill:#119da4;fill-opacity:1;fill-rule:evenodd;stroke:#000000;stroke-opacity:1" /></svg>
