<?xml version="1.0" encoding="UTF-8" standalone="no"?>
<svg
   viewBox="0 0 24 30"
   x="0px"
   y="0px"
   version="1.1"
   id="svg2"
   sodipodi:docname="skill-border.svg"
   inkscape:version="1.3.2 (091e20e, 2023-11-25, custom)"
   xmlns:inkscape="http://www.inkscape.org/namespaces/inkscape"
   xmlns:sodipodi="http://sodipodi.sourceforge.net/DTD/sodipodi-0.dtd"
   xmlns="http://www.w3.org/2000/svg"
   xmlns:svg="http://www.w3.org/2000/svg"
   xmlns:rdf="http://www.w3.org/1999/02/22-rdf-syntax-ns#"
   xmlns:cc="http://creativecommons.org/ns#"
   xmlns:dc="http://purl.org/dc/elements/1.1/">
  <defs
     id="defs2" />
  <sodipodi:namedview
     id="namedview2"
     pagecolor="#ffffff"
     bordercolor="#000000"
     borderopacity="0.25"
     inkscape:showpageshadow="2"
     inkscape:pageopacity="0.0"
     inkscape:pagecheckerboard="0"
     inkscape:deskcolor="#d1d1d1"
     inkscape:zoom="9.2277435"
     inkscape:cx="13.925398"
     inkscape:cy="32.239734"
     inkscape:window-width="1680"
     inkscape:window-height="979"
     inkscape:window-x="-8"
     inkscape:window-y="-8"
     inkscape:window-maximized="1"
     inkscape:current-layer="svg2" />
  <title
     id="title1">_</title>
  <circle
     cx="11.00018"
     cy="10"
     r="2"
     id="circle1"
     style="fill:#13505b;fill-opacity:1"
     inkscape:export-filename="skill-border.png"
     inkscape:export-xdpi="300"
     inkscape:export-ydpi="300" />
  <path
     d="M18.00006,10a7,7,0,1,0-11,5.74V21h8V18h3V14l2-1Zm-3.49988.05017a3.48,3.48,0,0,1-.25457,1.29639l.90167.52057-.5.866-.91034-.52557a3.49268,3.49268,0,0,1-1.08759.91187l.35974.98834-.93969.342-.35437-.97363a3.48863,3.48863,0,0,1-1.42975,0l-.35437.97363-.9397-.342.35974-.98841a3.49243,3.49243,0,0,1-1.08758-.9118l-.91034.52557-.5-.866.90167-.52057a3.48,3.48,0,0,1-.25452-1.29639c0-.0368.00977-.07092.01087-.10748L6.48169,9.76117l.17364-.98486L7.691,8.959a3.476,3.476,0,0,1,.70807-1.23077l-.6745-.80383.766-.64282.67243.80139a3.46364,3.46364,0,0,1,1.33709-.48236V5.55017h1V6.60059a3.46369,3.46369,0,0,1,1.3371.48236l.67242-.80139.766.64282-.6745.80383a3.47587,3.47587,0,0,1,.70813,1.23071L15.345,8.77631l.17365.98486-1.0293.18146C14.49048,9.97919,14.50018,10.01337,14.50018,10.05017Z"
     id="path1"
     style="fill:#13505b;fill-opacity:1" />
  <circle
     cx="10.495049"
     cy="9.442234"
     r="2"
     id="circle1-3"
     style="fill:#119da4;fill-opacity:1;stroke:#000000;stroke-width:0.3;stroke-dasharray:none;stroke-opacity:1" />
  <path
     d="M 17.4183,9.2506629 A 7,7 0 1 0 6.4182998,14.990664 v 5.26 H 14.4183 v -3 h 3 v -4 l 2,-1.000001 z m -3.49988,0.05017 a 3.48,3.48 0 0 1 -0.25457,1.2963901 l 0.90167,0.52057 -0.5,0.866 -0.91034,-0.52557 a 3.49268,3.49268 0 0 1 -1.08759,0.911871 l 0.35974,0.98834 -0.93969,0.342 -0.35437,-0.97363 a 3.48863,3.48863 0 0 1 -1.4297504,0 l -0.3543703,0.97363 -0.9396995,-0.342 0.35974,-0.98841 a 3.49243,3.49243 0 0 1 -1.08758,-0.911801 l -0.91034,0.52557 -0.5,-0.866 0.90167,-0.52057 a 3.48,3.48 0 0 1 -0.25452,-1.2963901 c 0,-0.0368 0.0098,-0.07092 0.01087,-0.10748 l -1.02936,-0.18152 0.17364,-0.98486 1.03567,0.18269 a 3.476,3.476 0 0 1 0.70807,-1.23077 l -0.6745,-0.80383 0.766,-0.64282 0.67243,0.80139 a 3.46364,3.46364 0 0 1 1.3370898,-0.48236 v -1.05044 H 10.91833 v 1.05042 a 3.46369,3.46369 0 0 1 1.3371,0.48236 l 0.67242,-0.80139 0.766,0.64282 -0.6745,0.80383 a 3.47587,3.47587 0 0 1 0.70813,1.23071 l 1.03576,-0.18261 0.17365,0.98486 -1.0293,0.18146 c 0.0011,0.03656 0.01083,0.07074 0.01083,0.10754 z"
     id="path1-9"
     style="fill:#119da4;fill-opacity:1;stroke:#000000;stroke-width:0.3;stroke-dasharray:none;stroke-opacity:1" />
  <metadata
     id="metadata1">
    <rdf:RDF>
      <cc:Work
         rdf:about="">
        <dc:title>_</dc:title>
      </cc:Work>
    </rdf:RDF>
  </metadata>
</svg>
