<?xml version="1.0" encoding="UTF-8" standalone="no"?>
<svg
   version="1.1"
   viewBox="-5.0 -10.0 110.0 135.0"
   id="svg2"
   sodipodi:docname="experiences-border.svg"
   inkscape:version="1.3.2 (091e20e, 2023-11-25, custom)"
   xmlns:inkscape="http://www.inkscape.org/namespaces/inkscape"
   xmlns:sodipodi="http://sodipodi.sourceforge.net/DTD/sodipodi-0.dtd"
   xmlns="http://www.w3.org/2000/svg"
   xmlns:svg="http://www.w3.org/2000/svg">
  <defs
     id="defs2" />
  <sodipodi:namedview
     id="namedview2"
     pagecolor="#ffffff"
     bordercolor="#000000"
     borderopacity="0.25"
     inkscape:showpageshadow="2"
     inkscape:pageopacity="0.0"
     inkscape:pagecheckerboard="0"
     inkscape:deskcolor="#d1d1d1"
     inkscape:zoom="4.1012193"
     inkscape:cx="57.421948"
     inkscape:cy="59.128757"
     inkscape:window-width="1680"
     inkscape:window-height="979"
     inkscape:window-x="-8"
     inkscape:window-y="-8"
     inkscape:window-maximized="1"
     inkscape:current-layer="svg2" />
  <path
     d="m24.789 16.891v-5.5312c0-0.33594 0.12891-0.66016 0.36719-0.89844 0.23438-0.23828 0.55859-0.37109 0.89453-0.37109h24.418c0.33594 0 0.66016 0.13281 0.89453 0.37109 0.23828 0.23828 0.37109 0.5625 0.36719 0.89844v5.5312h3.6406v-8.4922c-0.03125-1.0547-0.88281-1.9062-1.9414-1.9375h-30.328c-1.082 0-1.9688 0.85937-2 1.9375v8.4883zm18.359 22.27h-9.7773l-0.12891 0.12891v5.8594l0.12891 0.12891h9.7812l0.12891-0.12891v-5.8594l-0.12891-0.12891zm-9.7812-2.5312h0.003906c-0.70703 0-1.3828 0.28125-1.8828 0.78125-0.52344 0.53125-0.80469 1.2539-0.77734 2l-21-6c-2.2227-0.60156-4.7109-1.8594-4.7109-4.4102v-6c0.011719-1.9883 1.6211-3.5938 3.6094-3.6016h59.312c1.9844 0.007812 3.5938 1.6172 3.5977 3.6016v6c0 2.5586-2.4883 3.8203-4.75 4.4609l-21 6v-0.12109c-0.003906-1.4648-1.1914-2.6562-2.6602-2.6602zm3.1797 6.8516h0.003906c-0.35547 0.03125-0.70703-0.089844-0.96875-0.32812-0.26562-0.24219-0.41406-0.58203-0.41406-0.9375 0-0.35547 0.14844-0.69531 0.41406-0.9375 0.26172-0.23828 0.61328-0.35938 0.96875-0.32812h3.4492c0.35547-0.03125 0.70703 0.089843 0.96875 0.32812 0.26562 0.24219 0.41406 0.58203 0.41406 0.9375 0 0.35547-0.14844 0.69531-0.41406 0.9375-0.26172 0.23828-0.61328 0.35938-0.96875 0.32812zm52.191 14.691c0.28516 0.68359 0.53125 1.3867 0.74219 2.0977 0.12109 0.39844 0.42969 0.71484 0.82812 0.83984l4.6914 1.8203v7.5391l-4.7617 1.8398c-0.36328 0.13672-0.64453 0.4375-0.75781 0.8125-0.42969 1.4258-1 2.8047-1.6992 4.1172-0.17188 0.34766-0.17188 0.75391 0 1.1016l2.0195 4.6602-5.3281 5.3203-4.6719-2.0391c-0.37109-0.16406-0.79688-0.14062-1.1523 0.058594-1.2969 0.6875-2.6602 1.2422-4.0703 1.6602-0.39844 0.11328-0.71484 0.42188-0.83984 0.82031l-1.8203 4.6914h-7.5391l-1.8398-4.7617c-0.13672-0.36328-0.4375-0.64062-0.80859-0.75-1.4258-0.43359-2.8086-1.0039-4.1211-1.7109-0.34766-0.16797-0.75391-0.16797-1.0977 0l-4.6719 2.0586-5.3281-5.3477 2.0586-4.6797c0.16016-0.37109 0.14063-0.79687-0.058593-1.1484-0.69922-1.3008-1.2617-2.6641-1.6914-4.0703-0.11719-0.40234-0.42578-0.71484-0.82031-0.83984l-4.6914-1.8086v-7.5234l4.7617-1.8398c0.36328-0.14453 0.64063-0.44531 0.75-0.82031 0.43359-1.4219 1.0039-2.8008 1.7109-4.1094 0.16797-0.35156 0.16797-0.75781 0-1.1094l-2.0586-4.6719 5.3281-5.3281 4.6719 2.0703h-0.003906c0.375 0.16406 0.80078 0.13672 1.1523-0.070313 1.2969-0.69531 2.6602-1.2578 4.0703-1.6797 0.39453-0.125 0.71094-0.43359 0.83984-0.83203l1.8086-4.6914h7.5391l1.8398 4.7617c0.14453 0.36719 0.44531 0.64453 0.82031 0.76172 1.4258 0.42578 2.8008 0.99609 4.1094 1.6992 0.35156 0.16797 0.76172 0.16797 1.1133 0l4.6719-2.0703 5.3281 5.3281-2.0703 4.6719c-0.16406 0.37109-0.14062 0.80078 0.070313 1.1484 0.33984 0.64062 0.64844 1.3008 0.94141 2zm-50 11.898h-30.129c-1.9883-0.011718-3.5977-1.6211-3.6094-3.6094v-32.461c1.2227 0.89453 2.6055 1.5508 4.0703 1.9297l21.641 6.0703v3.1211c0.003906 1.4648 1.1914 2.6523 2.6602 2.6602h9.7812-0.003906c1.4688-0.007812 2.6562-1.1953 2.6602-2.6602v-3.1211l21.641-6.1484c1.4609-0.35547 2.8438-0.98437 4.0703-1.8516v3.3711h-8c-0.51953 0.007812-0.98438 0.32422-1.1797 0.80859l-1.9297 5c-1.168 0.375-2.3086 0.83594-3.4102 1.3789l-4.8516-2.1406v0.003906c-0.48438-0.25391-1.0742-0.16016-1.457 0.22656l-6.582 6.5508c-0.37109 0.37109-0.47656 0.92969-0.26953 1.4102l2.1602 4.9102c-0.55859 1.1211-1.0312 2.2852-1.4102 3.4805l-4.8984 1.8984c-0.53906 0.15625-0.91016 0.65234-0.91016 1.2109v8zm32.738-16.699h0.003907c-4.6953-1.1758-9.6602 0.19922-13.078 3.6211-3.4219 3.4219-4.7969 8.3867-3.6211 13.078h13.102-0.003906c1.9883-0.011718 3.5938-1.6211 3.6016-3.6094v-13.09zm-3.3711-2.9492h0.003906c-4.3164 0.007813-8.4492 1.7305-11.496 4.7891-3.043 3.0586-4.75 7.1992-4.7422 11.516 0.007812 4.3164 1.7266 8.4531 4.7812 11.5 3.0547 3.0469 7.1953 4.7578 11.512 4.7539 4.3164-0.003907 8.4531-1.7227 11.504-4.7734 3.0469-3.0547 4.7617-7.1914 4.7617-11.508 0.003906-4.3164-1.7109-8.4609-4.7656-11.516-3.0547-3.0508-7.1953-4.7656-11.516-4.7617z"
     fill-rule="evenodd"
     id="path1"
     style="fill:#13505b;fill-opacity:1" />
  <path
     d="M 23.19389,14.451929 V 8.9207294 c 0,-0.3359397 0.12891,-0.6601597 0.36719,-0.8984397 0.23438,-0.23828 0.55859,-0.37109 0.89453,-0.37109 h 24.418 c 0.33594,0 0.66016,0.13281 0.89453,0.37109 0.23828,0.23828 0.37109,0.5625 0.36719,0.8984397 v 5.5311996 h 3.6406 V 5.9597297 c -0.03125,-1.0547 -0.88281,-1.9062 -1.9414,-1.9375 h -30.328 c -1.082,0 -1.9688,0.85937 -2,1.9375 v 8.4882993 z m 18.359,22.27 h -9.7773 l -0.12891,0.12891 v 5.8594 l 0.12891,0.12891 h 9.7812 l 0.12891,-0.12891 v -5.8594 l -0.12891,-0.12891 z m -9.7812,-2.5312 h 0.0039 c -0.70703,0 -1.3828,0.28125 -1.8828,0.78125 -0.52344,0.53125 -0.80469,1.2539 -0.77734,2 l -20.9999994,-6 c -2.2227,-0.60156 -4.7109,-1.8594 -4.7109,-4.4102 v -6 c 0.011719,-1.9883 1.6211,-3.5938 3.6094,-3.6016 H 66.32595 c 1.9844,0.0078 3.5938,1.6172 3.5977,3.6016 v 6 c 0,2.5586 -2.4883,3.8203 -4.75,4.4609 l -21,6 v -0.12109 c -0.0039,-1.4648 -1.1914,-2.6562 -2.6602,-2.6602 z m 3.1797,6.8516 h 0.0039 c -0.35547,0.03125 -0.70703,-0.08984 -0.96875,-0.32812 -0.26562,-0.24219 -0.41406,-0.58203 -0.41406,-0.9375 0,-0.35547 0.14844,-0.69531 0.41406,-0.9375 0.26172,-0.23828 0.61328,-0.35938 0.96875,-0.32812 h 3.4492 c 0.35547,-0.03125 0.70703,0.08984 0.96875,0.32812 0.26562,0.24219 0.41406,0.58203 0.41406,0.9375 0,0.35547 -0.14844,0.69531 -0.41406,0.9375 -0.26172,0.23828 -0.61328,0.35938 -0.96875,0.32812 z m 52.191,14.691 c 0.28516,0.68359 0.53125,1.3867 0.74219,2.0977 0.12109,0.39844 0.42969,0.71484 0.82812,0.83984 l 4.6914,1.8203 v 7.5391 l -4.7617,1.8398 c -0.36328,0.13672 -0.64453,0.4375 -0.75781,0.8125 -0.42969,1.4258 -1,2.8047 -1.6992,4.1172 -0.17188,0.34766 -0.17188,0.75391 0,1.1016 l 2.0195,4.6602 -5.3281,5.3203 -4.6719,-2.0391 c -0.37109,-0.16406 -0.79688,-0.14062 -1.1523,0.05859 -1.2969,0.6875 -2.6602,1.2422 -4.0703,1.6602 -0.39844,0.11328 -0.71484,0.42188 -0.83984,0.82031 l -1.8203,4.6914 h -7.5391 l -1.8398,-4.7617 c -0.13672,-0.36328 -0.4375,-0.64062 -0.80859,-0.75 -1.4258,-0.43359 -2.8086,-1.0039 -4.1211,-1.7109 -0.34766,-0.16797 -0.75391,-0.16797 -1.0977,0 l -4.6719,2.0586 -5.3281,-5.3477 2.0586,-4.6797 c 0.16016,-0.37109 0.14063,-0.79687 -0.05859,-1.1484 -0.69922,-1.3008 -1.2617,-2.6641 -1.6914,-4.0703 -0.11719,-0.40234 -0.42578,-0.71484 -0.82031,-0.83984 l -4.6914,-1.8086 v -7.5234 l 4.7617,-1.8398 c 0.36328,-0.14453 0.64063,-0.44531 0.75,-0.82031 0.43359,-1.4219 1.0039,-2.8008 1.7109,-4.1094 0.16797,-0.35156 0.16797,-0.75781 0,-1.1094 l -2.0586,-4.6719 5.3281,-5.3281 4.6719,2.0703 h -0.0039 c 0.375,0.16406 0.80078,0.13672 1.1523,-0.07031 1.2969,-0.69531 2.6602,-1.2578 4.0703,-1.6797 0.39453,-0.125 0.71094,-0.43359 0.83984,-0.83203 l 1.8086,-4.6914 h 7.5391 l 1.8398,4.7617 c 0.14453,0.36719 0.44531,0.64453 0.82031,0.76172 1.4258,0.42578 2.8008,0.99609 4.1094,1.6992 0.35156,0.16797 0.76172,0.16797 1.1133,0 l 4.6719,-2.0703 5.3281,5.3281 -2.0703,4.6719 c -0.16406,0.37109 -0.14062,0.80078 0.07031,1.1484 0.33984,0.64062 0.64844,1.3008 0.94141,2 z m -50,11.898 H 7.0133906 c -1.9883,-0.01172 -3.5977,-1.6211 -3.6094,-3.6094 v -32.461 c 1.2227,0.89453 2.6055,1.5508 4.0703,1.9297 l 21.6409994,6.0703 v 3.1211 c 0.0039,1.4648 1.1914,2.6523 2.6602,2.6602 h 9.7812 -0.0039 c 1.4688,-0.0078 2.6562,-1.1953 2.6602,-2.6602 v -3.1211 l 21.641,-6.1484 c 1.4609,-0.35547 2.8438,-0.98437 4.0703,-1.8516 v 3.3711 h -8 c -0.51953,0.0078 -0.98438,0.32422 -1.1797,0.80859 l -1.9297,5 c -1.168,0.375 -2.3086,0.83594 -3.4102,1.3789 l -4.8516,-2.1406 v 0.0039 c -0.48438,-0.25391 -1.0742,-0.16016 -1.457,0.22656 l -6.582,6.5508 c -0.37109,0.37109 -0.47656,0.92969 -0.26953,1.4102 l 2.1602,4.9102 c -0.55859,1.1211 -1.0312,2.2852 -1.4102,3.4805 l -4.8984,1.8984 c -0.53906,0.15625 -0.91016,0.65234 -0.91016,1.2109 v 8 z m 32.738,-16.699 h 0.0039 c -4.6953,-1.1758 -9.6602,0.19922 -13.078,3.6211 -3.4219,3.4219 -4.7969,8.3867 -3.6211,13.078 h 13.102 -0.0039 c 1.9883,-0.01172 3.5938,-1.6211 3.6016,-3.6094 v -13.09 z m -3.3711,-2.9492 h 0.0039 c -4.3164,0.0078 -8.4492,1.7305 -11.496,4.7891 -3.043,3.0586 -4.75,7.1992 -4.7422,11.516 0.0078,4.3164 1.7266,8.4531 4.7812,11.5 3.0547,3.0469 7.1953,4.7578 11.512,4.7539 4.3164,-0.0039 8.4531,-1.7227 11.504,-4.7734 3.0469,-3.0547 4.7617,-7.1914 4.7617,-11.508 0.0039,-4.3164 -1.7109,-8.4609 -4.7656,-11.516 -3.0547,-3.0508 -7.1953,-4.7656 -11.516,-4.7617 z"
     fill-rule="evenodd"
     id="path1-1"
     style="fill:#119da4;fill-opacity:1;stroke:#000000;stroke-opacity:1" />
</svg>
