<?xml version="1.0" encoding="UTF-8" standalone="no"?>
<svg
   version="1.1"
   x="0px"
   y="0px"
   viewBox="0 0 100 125"
   style="enable-background:new 0 0 100 100;"
   xml:space="preserve"
   id="svg2"
   sodipodi:docname="formation-border.svg"
   inkscape:version="1.3.2 (091e20e, 2023-11-25, custom)"
   xmlns:inkscape="http://www.inkscape.org/namespaces/inkscape"
   xmlns:sodipodi="http://sodipodi.sourceforge.net/DTD/sodipodi-0.dtd"
   xmlns="http://www.w3.org/2000/svg"
   xmlns:svg="http://www.w3.org/2000/svg"><defs
     id="defs2" /><sodipodi:namedview
     id="namedview2"
     pagecolor="#ffffff"
     bordercolor="#000000"
     borderopacity="0.25"
     inkscape:showpageshadow="2"
     inkscape:pageopacity="0.0"
     inkscape:pagecheckerboard="0"
     inkscape:deskcolor="#d1d1d1"
     inkscape:zoom="3.132"
     inkscape:cx="41.666667"
     inkscape:cy="12.931034"
     inkscape:window-width="1680"
     inkscape:window-height="979"
     inkscape:window-x="-8"
     inkscape:window-y="-8"
     inkscape:window-maximized="1"
     inkscape:current-layer="svg2" /><path
     d="M48.99,50L16.56,36.28c0,0-0.01,0-0.01,0l-0.07-0.03c0,0,0,0,0,0l-0.94-0.4l28.52-7.06c0.98,1.3,2.87,2.16,5.09,2.16  c3.26,0,5.82-1.86,5.82-4.24c0-2.38-2.56-4.24-5.82-4.24c-3.01,0-5.42,1.59-5.77,3.71L11.4,34.09l-11.33-4.8l49.27-18.27  l48.91,17.53L48.99,50z M52.28,26.71c0-0.63-1.21-1.54-3.12-1.54s-3.12,0.91-3.12,1.54c0,0.63,1.21,1.54,3.12,1.54  S52.28,27.33,52.28,26.71z M7.03,35.17l-4.11,1.02c-0.6,0.15-1.02,0.69-1.02,1.31v8.79c0.43-0.13,0.88-0.2,1.35-0.2  s0.92,0.07,1.35,0.2v-7.73l6.58-1.63L7.03,35.17L7.03,35.17z M5.32,50.87c0-1.15-0.93-2.08-2.08-2.08c-1.15,0-2.08,0.93-2.08,2.08  c0,1.15,0.93,2.08,2.08,2.08C4.39,52.95,5.32,52.01,5.32,50.87z M0,62.61h6.48L3.24,57L0,62.61z M50.43,68.26  c-0.42,0-0.85,0.01-1.27,0.01c-18.23,0-27.81-4.7-31.82-7.42v4.94c1.38,1.18,6.75,5.17,18.21,7.07L50.43,68.26z M35.66,72.87  c-0.04,0-0.07-0.01-0.11-0.02l-0.23,0.07C35.43,72.9,35.55,72.89,35.66,72.87z M99.7,62.82c-0.53-1.7-1.68-3.09-3.25-3.92  c-1.57-0.83-3.37-1-5.07-0.47l-8.65,2.67l-3.44,1.06c-0.01,0-0.03,0.01-0.04,0.01l-5.62,1.73c1.77,1.55,3.1,3.58,3.8,5.85  c0.38,1.23,0.57,2.5,0.57,3.78c0,1.03-0.13,2.07-0.38,3.07l17.69-5.46c2.81-0.87,4.69-3.42,4.69-6.36  C100,64.13,99.9,63.47,99.7,62.82z M70.87,65.18c-0.14-0.1-0.29-0.19-0.44-0.28l-4.15,1.28c0.01,0,0.02,0.01,0.03,0.02  c2.2,1.16,3.82,3.11,4.55,5.49c0.28,0.9,0.42,1.82,0.42,2.75c0,1.61-0.4,3.14-1.14,4.48l4.3-1.33c0.56-1.28,0.85-2.67,0.85-4.05  c0-1.01-0.15-2.01-0.45-2.98C74.17,68.34,72.79,66.48,70.87,65.18z M36.87,75.49c-3.72,0-6.74,3.02-6.74,6.74  c0,3.72,3.02,6.74,6.74,6.74c1.05,0,2.04-0.24,2.92-0.67c2.26-1.09,3.82-3.41,3.82-6.08C43.62,78.52,40.59,75.49,36.87,75.49z   M65.06,68.59c-1.49-0.79-3.19-0.97-4.8-0.54c-0.02,0-0.03,0.01-0.05,0.02L41.3,73.9c2.98,1.59,5.01,4.73,5.01,8.34  c0,1.58-0.39,3.07-1.08,4.38l18.28-5.65c0.12-0.09,0.26-0.16,0.4-0.2c2.79-0.86,4.67-3.4,4.67-6.32c0-0.66-0.1-1.32-0.3-1.96  C67.77,70.8,66.62,69.41,65.06,68.59z M58.46,61.14c-0.33,0.16-0.71,0.19-1.05,0.07c-1.05-0.36-2.02-0.38-2.86-0.24  c3.75,1.21,6.16,3.41,6.65,3.89c0.02,0.02,0.04,0.03,0.05,0.05l0.3-0.09l1.38-0.43c-0.84-3.07-2.2-5.14-3.54-6.52  c0.07,0.97-0.06,1.85-0.25,2.45C59.03,60.68,58.79,60.97,58.46,61.14z M78.49,59.59c0.01,0,0.03-0.01,0.04-0.01l0.01,0l2.44-0.75  v-19.8L49.53,52.71c-0.17,0.07-0.35,0.11-0.54,0.11c-0.18,0-0.36-0.04-0.53-0.11L17.34,39.53v17.91c1.85,1.57,10.79,8.11,31.82,8.11  c2.84,0,5.57-0.1,8.14-0.3c-0.14-0.09-0.28-0.18-0.43-0.27c-1.57-0.94-3.81-1.92-6.49-2.1c-0.53-0.04-0.99-0.38-1.17-0.88  c-0.18-0.5-0.06-1.06,0.32-1.43c0.14-0.13,3.05-2.92,7.19-2.31c-0.01-0.97-0.34-2.27-1.75-3.16c-0.56-0.35-0.78-1.06-0.52-1.67  c0.26-0.61,0.92-0.94,1.57-0.78c0.26,0.07,5.91,1.55,8.78,8.81c-0.28-8.37,4.75-12.03,4.98-12.19c0.54-0.38,1.28-0.31,1.74,0.16  c0.46,0.47,0.52,1.21,0.12,1.75c-0.98,1.33-0.81,2.67-0.47,3.57c3.64-2.07,7.36-0.53,7.53-0.45c0.49,0.21,0.81,0.68,0.82,1.22  c0.01,0.53-0.29,1.02-0.77,1.25c-2.5,1.18-4.25,2.95-5.37,4.41l5.09-1.57L78.49,59.59z M70.57,58.06c-0.36-0.04-0.7-0.22-0.93-0.51  c-0.39-0.5-0.83-1.27-1.12-2.2c-0.77,1.81-1.3,4.31-0.91,7.59l1.82-0.56c0.4-0.84,1.86-3.56,4.72-5.89  c-0.83,0.17-1.73,0.54-2.58,1.26C71.3,57.98,70.94,58.1,70.57,58.06z M65.05,63.74l0.46-0.14c-0.21-0.76-0.45-1.47-0.71-2.13  c0.02,0.6,0.07,1.23,0.15,1.88C64.96,63.49,65,63.62,65.05,63.74z"
     id="path1"
     style="fill:#13505b;fill-opacity:1"
     inkscape:export-filename="formation-border.png"
     inkscape:export-xdpi="300"
     inkscape:export-ydpi="300" /><path
     d="m 46.580039,47.163908 -32.43,-13.72 c 0,0 -0.01,0 -0.01,0 l -0.07,-0.03 c 0,0 0,0 0,0 l -0.94,-0.4 28.52,-7.06 c 0.98,1.3 2.87,2.16 5.09,2.16 3.26,0 5.82,-1.86 5.82,-4.24 0,-2.38 -2.56,-4.24 -5.82,-4.24 -3.01,0 -5.42,1.59 -5.77,3.71 l -31.9800002,7.91 -11.3300005,-4.8 49.2700007,-18.2699998 48.91,17.5299998 z m 3.29,-23.29 c 0,-0.63 -1.21,-1.54 -3.12,-1.54 -1.91,0 -3.12,0.91 -3.12,1.54 0,0.63 1.21,1.54 3.12,1.54 1.91,0 3.12,-0.92 3.12,-1.54 z m -45.2500007,8.46 -4.11000001,1.02 c -0.6,0.15 -1.02,0.69 -1.02,1.31 v 8.79 c 0.43,-0.13 0.88,-0.2 1.35,-0.2 0.47000001,0 0.92000001,0.07 1.35000001,0.2 v -7.73 l 6.5800005,-1.63 z m -1.71,15.7 c 0,-1.15 -0.93,-2.08 -2.08000001,-2.08 -1.15,0 -2.07999999,0.93 -2.07999999,2.08 0,1.15 0.92999999,2.08 2.07999999,2.08 1.15000001,0 2.08000001,-0.94 2.08000001,-2.08 z m -5.32,11.74 h 6.48 l -3.24000001,-5.61 z m 50.4300007,5.65 c -0.42,0 -0.85,0.01 -1.27,0.01 -18.23,0 -27.81,-4.7 -31.82,-7.42 v 4.94 c 1.38,1.18 6.75,5.17 18.21,7.07 z m -14.77,4.61 c -0.04,0 -0.07,-0.01 -0.11,-0.02 l -0.23,0.07 c 0.11,-0.02 0.23,-0.03 0.34,-0.05 z m 64.040002,-10.05 c -0.53,-1.7 -1.680002,-3.09 -3.250002,-3.92 -1.57,-0.83 -3.37,-1 -5.07,-0.47 l -8.65,2.67 -3.44,1.06 c -0.01,0 -0.03,0.01 -0.04,0.01 l -5.62,1.73 c 1.77,1.55 3.1,3.58 3.8,5.85 0.38,1.23 0.57,2.5 0.57,3.78 0,1.03 -0.13,2.07 -0.38,3.07 l 17.69,-5.46 c 2.81,-0.87 4.690002,-3.42 4.690002,-6.36 0,-0.65 -0.1,-1.31 -0.3,-1.96 z m -28.830002,2.36 c -0.14,-0.1 -0.29,-0.19 -0.44,-0.28 l -4.15,1.28 c 0.01,0 0.02,0.01 0.03,0.02 2.2,1.16 3.82,3.11 4.55,5.49 0.28,0.9 0.42,1.82 0.42,2.75 0,1.61 -0.4,3.14 -1.14,4.48 l 4.3,-1.33 c 0.56,-1.28 0.85,-2.67 0.85,-4.05 0,-1.01 -0.15,-2.01 -0.45,-2.98 -0.67,-2.22 -2.05,-4.08 -3.97,-5.38 z m -34,10.31 c -3.72,0 -6.74,3.02 -6.74,6.74 0,3.72 3.02,6.74 6.74,6.74 1.05,0 2.04,-0.24 2.92,-0.67 2.26,-1.09 3.82,-3.41 3.82,-6.08 0.01,-3.7 -3.02,-6.73 -6.74,-6.73 z m 28.19,-6.9 c -1.49,-0.79 -3.19,-0.97 -4.8,-0.54 -0.02,0 -0.03,0.01 -0.05,0.02 l -18.91,5.83 c 2.98,1.59 5.01,4.73 5.01,8.34 0,1.58 -0.39,3.07 -1.08,4.38 l 18.28,-5.65 c 0.12,-0.09 0.26,-0.16 0.4,-0.2 2.79,-0.86 4.67,-3.4 4.67,-6.32 0,-0.66 -0.1,-1.32 -0.3,-1.96 -0.51,-1.69 -1.66,-3.08 -3.22,-3.9 z m -6.6,-7.45 c -0.33,0.16 -0.71,0.19 -1.05,0.07 -1.05,-0.36 -2.02,-0.38 -2.86,-0.24 3.75,1.21 6.16,3.41 6.65,3.89 0.02,0.02 0.04,0.03 0.05,0.05 l 0.3,-0.09 1.38,-0.43 c -0.84,-3.07 -2.2,-5.14 -3.54,-6.52 0.07,0.97 -0.06,1.85 -0.25,2.45 -0.11,0.36 -0.35,0.65 -0.68,0.82 z m 20.03,-1.55 c 0.01,0 0.03,-0.01 0.04,-0.01 h 0.01 l 2.44,-0.75 v -19.8 l -31.45,13.68 c -0.17,0.07 -0.35,0.11 -0.54,0.11 -0.18,0 -0.36,-0.04 -0.53,-0.11 l -31.12,-13.18 v 17.91 c 1.85,1.57 10.79,8.11 31.82,8.11 2.84,0 5.57,-0.1 8.14,-0.3 -0.14,-0.09 -0.28,-0.18 -0.43,-0.27 -1.57,-0.94 -3.81,-1.92 -6.49,-2.1 -0.53,-0.04 -0.99,-0.38 -1.17,-0.88 -0.18,-0.5 -0.06,-1.06 0.32,-1.43 0.14,-0.13 3.05,-2.92 7.19,-2.31 -0.01,-0.97 -0.34,-2.27 -1.75,-3.16 -0.56,-0.35 -0.78,-1.06 -0.52,-1.67 0.26,-0.61 0.92,-0.94 1.57,-0.78 0.26,0.07 5.91,1.55 8.78,8.81 -0.28,-8.37 4.75,-12.03 4.98,-12.19 0.54,-0.38 1.28,-0.31 1.74,0.16 0.46,0.47 0.52,1.21 0.12,1.75 -0.98,1.33 -0.81,2.67 -0.47,3.57 3.64,-2.07 7.36,-0.53 7.53,-0.45 0.49,0.21 0.81,0.68 0.82,1.22 0.01,0.53 -0.29,1.02 -0.77,1.25 -2.5,1.18 -4.25,2.95 -5.37,4.41 l 5.09,-1.57 z m -7.92,-1.53 c -0.36,-0.04 -0.7,-0.22 -0.93,-0.51 -0.39,-0.5 -0.83,-1.27 -1.12,-2.2 -0.77,1.81 -1.3,4.31 -0.91,7.59 l 1.82,-0.56 c 0.4,-0.84 1.86,-3.56 4.72,-5.89 -0.83,0.17 -1.73,0.54 -2.58,1.26 -0.27,0.23 -0.63,0.35 -1,0.31 z m -5.52,5.68 0.46,-0.14 c -0.21,-0.76 -0.45,-1.47 -0.71,-2.13 0.02,0.6 0.07,1.23 0.15,1.88 0.01,0.14 0.05,0.27 0.1,0.39 z"
     id="path1-3"
     style="fill:#119da4;fill-opacity:1;stroke:#000000;stroke-opacity:1" /></svg>
