<?xml version="1.0" encoding="UTF-8" standalone="no"?>
<svg
   viewBox="0 0 33 41.25"
   fill="none"
   x="0px"
   y="0px"
   version="1.1"
   id="svg5"
   sodipodi:docname="menu.svg"
   inkscape:version="1.3.2 (091e20e, 2023-11-25, custom)"
   xmlns:inkscape="http://www.inkscape.org/namespaces/inkscape"
   xmlns:sodipodi="http://sodipodi.sourceforge.net/DTD/sodipodi-0.dtd"
   xmlns="http://www.w3.org/2000/svg"
   xmlns:svg="http://www.w3.org/2000/svg">
  <defs
     id="defs5" />
  <sodipodi:namedview
     id="namedview5"
     pagecolor="#ffffff"
     bordercolor="#000000"
     borderopacity="0.25"
     inkscape:showpageshadow="2"
     inkscape:pageopacity="0.0"
     inkscape:pagecheckerboard="0"
     inkscape:deskcolor="#d1d1d1"
     inkscape:zoom="9.4909091"
     inkscape:cx="18.069923"
     inkscape:cy="15.646552"
     inkscape:window-width="1680"
     inkscape:window-height="979"
     inkscape:window-x="-8"
     inkscape:window-y="-8"
     inkscape:window-maximized="1"
     inkscape:current-layer="svg5" />
  <path
     d="M 2.6719522,16.341067 H 15.586062 c 0.5529,0 1,-0.447 1,-1 V 2.4269969 c 0,-0.553 -0.4471,-0.999999 -1,-0.999999 H 2.6719522 c -0.553,0 -1.000002,0.446999 -1.000002,0.999999 V 15.341067 c 0,0.552 0.448002,1 1.000002,1 z m 1,-12.9140701 H 14.586062 V 14.341067 H 3.6719522 Z"
     fill="black"
     id="path1-3"
     style="fill:#13505b;fill-opacity:1;stroke:none;stroke-opacity:1"
     inkscape:export-filename="menu-half.png"
     inkscape:export-xdpi="300"
     inkscape:export-ydpi="300" />
  <path
     d="m 19.757862,16.341067 h 12.9141 c 0.553,0 1,-0.447 1,-1 V 2.4269969 c 0,-0.553 -0.447,-0.999999 -1,-0.999999 h -12.9141 c -0.553,0 -1,0.446999 -1,0.999999 V 15.341067 c 0,0.552 0.448,1 1,1 z m 1,-12.9140701 h 10.9141 V 14.341067 h -10.9141 z"
     fill="black"
     id="path2-7"
     style="fill:#13505b;fill-opacity:1;stroke:none;stroke-opacity:1" />
  <path
     d="M1.92969 15.6211H14.8438C15.3967 15.6211 15.8438 15.1741 15.8438 14.6211V1.70703C15.8438 1.15403 15.3967 0.707031 14.8438 0.707031H1.92969C1.37669 0.707031 0.929688 1.15403 0.929688 1.70703V14.6211C0.929688 15.1731 1.37769 15.6211 1.92969 15.6211ZM2.92969 2.70703H13.8438V13.6211H2.92969V2.70703Z"
     fill="black"
     id="path1"
     style="fill:#119da4;fill-opacity:1;stroke:none;stroke-opacity:1"
     inkscape:export-filename="menu-half.png"
     inkscape:export-xdpi="300"
     inkscape:export-ydpi="300" />
  <path
     d="M19.0156 15.6211H31.9297C32.4827 15.6211 32.9297 15.1741 32.9297 14.6211V1.70703C32.9297 1.15403 32.4827 0.707031 31.9297 0.707031H19.0156C18.4626 0.707031 18.0156 1.15403 18.0156 1.70703V14.6211C18.0156 15.1731 18.4636 15.6211 19.0156 15.6211ZM20.0156 2.70703H30.9297V13.6211H20.0156V2.70703Z"
     fill="black"
     id="path2"
     style="fill:#119da4;fill-opacity:1;stroke:none;stroke-opacity:1" />
</svg>
