<?xml version="1.0" encoding="UTF-8" standalone="no"?>
<svg
   version="1.1"
   viewBox="-5.0 -10.0 110.0 135.0"
   id="svg2"
   sodipodi:docname="write-border.svg"
   inkscape:version="1.3.2 (091e20e, 2023-11-25, custom)"
   xmlns:inkscape="http://www.inkscape.org/namespaces/inkscape"
   xmlns:sodipodi="http://sodipodi.sourceforge.net/DTD/sodipodi-0.dtd"
   xmlns="http://www.w3.org/2000/svg"
   xmlns:svg="http://www.w3.org/2000/svg">
  <defs
     id="defs2" />
  <sodipodi:namedview
     id="namedview2"
     pagecolor="#ffffff"
     bordercolor="#000000"
     borderopacity="0.25"
     inkscape:showpageshadow="2"
     inkscape:pageopacity="0.0"
     inkscape:pagecheckerboard="0"
     inkscape:deskcolor="#d1d1d1"
     inkscape:zoom="5.8"
     inkscape:cx="54.913793"
     inkscape:cy="53.706897"
     inkscape:window-width="1680"
     inkscape:window-height="979"
     inkscape:window-x="-8"
     inkscape:window-y="-8"
     inkscape:window-maximized="1"
     inkscape:current-layer="svg2" />
  <path
     d="m95.125 43.016-38.141-38.141c-0.76562-0.76562-2-0.76562-2.7656 0l-11.047 11.047c-0.76562 0.76562-0.76562 2 0 2.7656l3.4531 3.4688-36.25 25.516c-0.45312 0.32812-0.75 0.82812-0.8125 1.375l-5.25 44.469c-0.14062 1.2188 0.9375 2.3594 2.1719 2.1719l44.469-5.25c0.54688-0.0625 1.0469-0.35938 1.3594-0.8125l25.531-36.25 3.4688 3.4531c0.375 0.39062 0.875 0.57812 1.375 0.57812s1-0.1875 1.3906-0.57812l11.047-11.047c0.76562-0.76562 0.76562-2 0-2.7656zm-45.5 43.641-38.016 4.5 18.234-18.25c1.3281 0.82812 2.8594 1.2812 4.4531 1.2812 2.2656 0 4.3906-0.875 6-2.4844 3.3125-3.3125 3.3125-8.6875 0-12s-8.6875-3.3125-12 0c-2.8438 2.8281-3.2188 7.1719-1.2031 10.453l-18.25 18.234 4.5-38.016 36.094-25.422 25.609 25.609z"
     id="path1"
     style="fill:#13505b;fill-opacity:1" />
  <path
     d="M 94.239175,40.439353 56.098174,2.2983529 c -0.76562,-0.7656204 -2,-0.7656204 -2.7656,0 l -11.047,11.0470001 c -0.76562,0.76562 -0.76562,2 0,2.7656 l 3.4531,3.4688 -36.2499998,25.516 c -0.45312,0.32812 -0.75,0.82812 -0.8125,1.375 l -5.25,44.469 c -0.14062,1.2188 0.9375,2.3594 2.1719,2.1719 l 44.4689998,-5.25 c 0.54688,-0.0625 1.0469,-0.35938 1.3594,-0.8125 l 25.531,-36.25 3.468799,3.4531 c 0.375,0.39062 0.875,0.57812 1.375,0.57812 0.5,0 1,-0.1875 1.3906,-0.57812 l 11.047002,-11.047 c 0.76562,-0.76562 0.76562,-2 0,-2.7656 z m -45.500001,43.641 -38.016,4.5 18.234,-18.25 c 1.3281,0.82812 2.8594,1.2812 4.4531,1.2812 2.2656,0 4.3906,-0.875 6,-2.4844 3.3125,-3.3125 3.3125,-8.6875 0,-12 -3.3125,-3.3125 -8.6875,-3.3125 -12,0 -2.8438,2.8281 -3.2188,7.1719 -1.2031,10.453 l -18.2499998,18.234 4.4999998,-38.016 36.094,-25.422 25.609,25.609 z"
     id="path1-3"
     style="fill:#119da4;fill-opacity:1;stroke:#000000;stroke-opacity:1" />
</svg>
